<svg width="298" height="73" viewBox="0 0 298 73" fill="none" xmlns="http://www.w3.org/2000/svg">
<path d="M108.694 22.5524C110.575 23.62 112.121 25.2214 113.397 27.2231C113.8 27.8236 113.934 28.3574 113.934 28.8912C113.934 29.5584 113.598 30.1589 112.994 30.5592C112.658 30.7594 112.255 30.8929 111.785 30.8929C111.314 30.8929 110.844 30.7594 110.441 30.5592C110.038 30.3591 109.702 30.0255 109.501 29.6251C108.627 28.2239 107.62 27.1563 106.343 26.4224C105.067 25.6884 103.455 25.3548 101.506 25.3548C99.1553 25.3548 97.2071 25.8219 95.7292 26.756C94.2513 27.6901 93.5124 29.0246 93.5124 30.7594C93.5124 32.3608 94.1841 33.762 95.4605 34.8295C96.8041 35.8971 99.1553 36.6311 102.514 36.9647C106.276 37.365 109.165 38.4993 111.247 40.3676C113.33 42.2358 114.337 44.7713 114.337 47.8406C114.337 50.1092 113.733 51.9775 112.524 53.6456C111.314 55.2469 109.702 56.448 107.62 57.2486C105.604 58.0493 103.455 58.4497 101.103 58.4497C98.0804 58.4497 95.259 57.7824 92.7734 56.3812C90.2878 54.98 88.5412 53.2452 87.6007 50.9766C87.4664 50.5763 87.332 50.3094 87.332 50.0425C87.332 49.5754 87.5336 49.1751 87.8695 48.7748C88.2053 48.4411 88.6756 48.1742 89.2802 48.0408C89.3474 48.0408 89.5489 47.9741 89.7504 47.9741C90.2207 47.9741 90.7581 48.1075 91.1611 48.4411C91.6314 48.708 91.9673 49.1084 92.1688 49.6422C92.7062 50.8432 93.8482 51.9108 95.5277 52.7114C97.2071 53.5788 99.0209 53.9792 101.036 53.9792C103.387 53.9792 105.403 53.4454 107.015 52.3778C108.627 51.3102 109.433 49.8423 109.433 47.9741C109.433 46.1725 108.762 44.7046 107.351 43.4369C105.94 42.1691 103.858 41.4352 101.036 41.1015C97.14 40.7012 94.117 39.5669 91.8329 37.6987C89.6161 35.8304 88.474 33.4283 88.474 30.626C88.474 28.6243 89.0786 26.8894 90.2207 25.4883C91.3627 24.0203 92.9078 22.9528 94.9231 22.1521C96.9384 21.4181 99.1553 21.0178 101.641 21.0178C104.597 20.9511 106.881 21.4848 108.694 22.5524Z" fill="white"/>
<path d="M140.469 55.9142C140.469 56.5814 140.201 57.1819 139.596 57.649C139.126 58.0493 138.656 58.1828 138.118 58.1828C137.446 58.1828 136.842 57.9159 136.439 57.3154L127.504 46.306L125.153 48.3744V55.5138C125.153 56.1811 124.951 56.7816 124.548 57.1819C124.145 57.5822 123.541 57.7824 122.869 57.7824C122.197 57.7824 121.593 57.5822 121.19 57.1819C120.786 56.7816 120.585 56.1811 120.585 55.5138V23.6867C120.585 23.0195 120.786 22.419 121.19 22.0186C121.593 21.6183 122.197 21.4181 122.869 21.4181C123.541 21.4181 124.145 21.6183 124.548 22.0186C124.951 22.419 125.153 23.0195 125.153 23.6867V42.7029L136.573 32.5609C136.976 32.1606 137.446 31.9604 138.051 31.9604C138.723 31.9604 139.26 32.2273 139.663 32.6944C140.066 33.0947 140.268 33.5618 140.268 34.1623C140.268 34.8295 139.999 35.3633 139.529 35.7637L130.863 43.4369L139.999 54.5797C140.335 54.9133 140.469 55.3804 140.469 55.9142Z" fill="white"/>
<path d="M166.534 46.1725C166.131 46.5729 165.594 46.773 164.989 46.773H147.12C147.456 48.9749 148.464 50.7097 150.076 52.0442C151.755 53.3787 153.771 54.0459 156.122 54.0459C157.062 54.0459 158.07 53.8457 159.078 53.5121C160.085 53.1785 160.959 52.7782 161.563 52.2444C162.033 51.9108 162.504 51.7106 163.108 51.7106C163.713 51.7106 164.183 51.844 164.519 52.1776C165.056 52.6447 165.392 53.1785 165.392 53.779C165.392 54.3128 165.124 54.7799 164.653 55.1802C163.578 56.0476 162.235 56.7148 160.69 57.2486C159.078 57.7824 157.6 58.0493 156.122 58.0493C153.569 58.0493 151.218 57.5155 149.203 56.3812C147.187 55.2469 145.575 53.7123 144.433 51.7773C143.291 49.8423 142.686 47.5737 142.686 45.105C142.686 42.6362 143.224 40.3676 144.299 38.3659C145.373 36.3642 146.918 34.8295 148.799 33.762C150.748 32.6277 152.897 32.0939 155.383 32.0939C157.801 32.0939 159.884 32.6277 161.63 33.6952C163.377 34.7628 164.721 36.2307 165.661 38.1657C166.601 40.1007 167.072 42.2358 167.072 44.7046C167.139 45.3051 166.937 45.7722 166.534 46.1725ZM149.807 38.0323C148.396 39.3 147.456 40.9681 147.12 43.0365H162.772C162.504 40.9681 161.698 39.3 160.421 38.0323C159.145 36.7645 157.465 36.164 155.383 36.164C153.099 36.164 151.218 36.7645 149.807 38.0323Z" fill="white"/>
<path d="M195.286 22.0186C195.757 22.4857 195.958 23.0195 195.958 23.7534V45.105C195.958 47.507 195.353 49.7089 194.211 51.7106C193.069 53.7123 191.524 55.2469 189.576 56.3812C187.628 57.5155 185.411 58.116 182.993 58.116C180.574 58.116 178.358 57.5155 176.409 56.3812C174.394 55.2469 172.849 53.7123 171.707 51.7106C170.565 49.7089 170.028 47.507 170.028 45.105C170.028 42.7029 170.565 40.501 171.573 38.4993C172.647 36.4976 174.058 34.963 175.872 33.8287C177.686 32.6944 179.768 32.1606 181.985 32.1606C183.799 32.1606 185.478 32.5609 187.091 33.2949C188.636 34.0289 189.979 35.0964 191.121 36.4309V23.7534C191.121 23.0195 191.323 22.4857 191.793 22.0186C192.263 21.5516 192.801 21.3514 193.54 21.3514C194.279 21.3514 194.883 21.6183 195.286 22.0186ZM187.292 52.7114C188.569 51.9775 189.576 50.9099 190.248 49.5754C190.987 48.241 191.323 46.7063 191.323 45.105C191.323 43.4369 190.987 41.969 190.248 40.6345C189.509 39.3 188.501 38.2324 187.292 37.4985C186.016 36.7645 184.605 36.3642 183.06 36.3642C181.515 36.3642 180.104 36.7645 178.828 37.4985C177.551 38.2324 176.544 39.3 175.805 40.6345C175.066 41.969 174.73 43.4369 174.73 45.105C174.73 46.773 175.066 48.241 175.805 49.5754C176.544 50.9099 177.551 51.9775 178.828 52.7114C180.104 53.4454 181.515 53.8457 183.06 53.8457C184.605 53.8457 186.016 53.5121 187.292 52.7114Z" fill="white"/>
<path d="M221.687 33.8287C223.702 34.963 225.247 36.4976 226.389 38.4993C227.532 40.501 228.069 42.7029 228.069 45.105C228.069 47.507 227.532 49.7756 226.524 51.7106C225.449 53.7123 224.038 55.2469 222.224 56.3812C220.411 57.5155 218.328 58.0493 216.111 58.0493C214.298 58.0493 212.618 57.649 211.006 56.915C209.461 56.1811 208.117 55.1135 206.975 53.779V69.9928C206.975 70.7268 206.774 71.2606 206.303 71.7276C205.833 72.1947 205.296 72.3949 204.557 72.3949C203.885 72.3949 203.28 72.1947 202.81 71.7276C202.34 71.2606 202.138 70.7268 202.138 69.9928V45.105C202.138 42.7029 202.743 40.501 203.885 38.4993C205.027 36.4976 206.572 34.963 208.52 33.8287C210.468 32.6944 212.685 32.0939 215.104 32.0939C217.522 32.0939 219.672 32.6944 221.687 33.8287ZM219.336 52.7114C220.612 51.9775 221.62 50.9099 222.359 49.5754C223.098 48.241 223.434 46.773 223.434 45.105C223.434 43.4369 223.098 41.969 222.359 40.6345C221.62 39.3 220.612 38.2324 219.336 37.4985C218.059 36.7645 216.649 36.3642 215.104 36.3642C213.559 36.3642 212.148 36.7645 210.871 37.4985C209.595 38.2324 208.587 39.3 207.916 40.6345C207.177 41.969 206.841 43.5036 206.841 45.105C206.841 46.773 207.177 48.241 207.916 49.5754C208.655 50.9099 209.662 51.9775 210.871 52.7114C212.148 53.4454 213.559 53.8457 215.104 53.8457C216.649 53.8457 218.059 53.5121 219.336 52.7114Z" fill="white"/>
<path d="M233.981 22.0186C234.451 21.5516 234.988 21.3514 235.66 21.3514C236.332 21.3514 236.936 21.5516 237.339 22.0186C237.81 22.4857 238.011 23.0195 238.011 23.6867V49.2418C238.011 50.3761 238.213 51.377 238.683 52.1109C239.153 52.8449 239.691 53.2452 240.362 53.2452H241.572C242.176 53.2452 242.714 53.4454 243.117 53.9125C243.52 54.3795 243.721 54.9133 243.721 55.5806C243.721 56.2478 243.453 56.8483 242.848 57.2486C242.243 57.7157 241.504 57.9159 240.564 57.9159H240.497C239.153 57.9159 237.944 57.5823 236.869 56.8483C235.794 56.1143 234.921 55.1135 234.384 53.779C233.779 52.4445 233.51 50.9766 233.51 49.3085V23.6867C233.309 23.0195 233.577 22.4857 233.981 22.0186Z" fill="white"/>
<path d="M264.278 33.8287C266.226 34.963 267.771 36.4976 268.913 38.4993C270.055 40.501 270.66 42.7029 270.66 45.105V55.5138C270.66 56.1811 270.458 56.7816 269.988 57.2486C269.517 57.7157 268.98 57.9159 268.241 57.9159C267.569 57.9159 266.965 57.7157 266.494 57.2486C266.024 56.7816 265.823 56.2478 265.823 55.5138V53.779C264.748 55.1135 263.404 56.1811 261.792 56.915C260.247 57.649 258.5 58.0493 256.687 58.0493C254.403 58.0493 252.387 57.5155 250.573 56.3812C248.76 55.2469 247.282 53.7123 246.274 51.7106C245.199 49.7089 244.729 47.507 244.729 45.105C244.729 42.7029 245.266 40.501 246.408 38.4993C247.55 36.4976 249.096 34.963 251.111 33.8287C253.126 32.6944 255.276 32.0939 257.694 32.0939C260.113 32.0939 262.329 32.6944 264.278 33.8287ZM261.994 52.7114C263.27 51.9775 264.278 50.9099 264.949 49.5754C265.688 48.241 266.024 46.773 266.024 45.105C266.024 43.4369 265.688 41.969 264.949 40.6345C264.21 39.3 263.203 38.2324 261.994 37.4985C260.717 36.7645 259.306 36.3642 257.761 36.3642C256.216 36.3642 254.806 36.7645 253.529 37.4985C252.253 38.2324 251.245 39.3 250.506 40.6345C249.767 41.969 249.431 43.5036 249.431 45.105C249.431 46.773 249.767 48.241 250.506 49.5754C251.245 50.9099 252.253 51.9775 253.529 52.7114C254.806 53.4454 256.216 53.8457 257.761 53.8457C259.306 53.8457 260.717 53.5121 261.994 52.7114Z" fill="white"/>
<path d="M298.001 34.3625C298.001 34.6961 297.934 35.0297 297.732 35.4968L283.289 67.6575C282.886 68.5916 282.281 69.1254 281.475 69.1254C281.139 69.1254 280.803 69.0587 280.333 68.8585C279.393 68.4582 278.922 67.8577 278.922 67.057C278.922 66.6566 278.99 66.323 279.191 65.9227L283.893 55.3804L273.279 35.4301C273.145 35.1632 273.011 34.8295 273.011 34.4292C273.011 34.0289 273.145 33.6285 273.414 33.2949C273.683 32.9613 274.018 32.6944 274.421 32.4942C274.69 32.3608 275.026 32.2941 275.362 32.2941C276.235 32.2941 276.907 32.7611 277.31 33.6285L285.909 50.643L293.5 33.6952C293.903 32.7611 294.508 32.3608 295.314 32.3608C295.717 32.3608 296.12 32.4275 296.456 32.5609C297.53 32.8946 298.001 33.4951 298.001 34.3625Z" fill="white"/>
<path d="M63.1465 10.4757C63.1465 10.4757 73.2903 6.27212 77.9255 17.4817C77.9255 17.4817 68.8566 22.6194 63.1465 10.4757Z" fill="#00A538"/>
<path d="M65.2944 23.0868C62.6745 17.2818 57.9049 16.8815 55.4865 17.015C62.7416 12.0774 65.0257 5.13817 65.0257 5.13817C64.0852 1.86872 61.734 3.33664 61.734 3.33664C59.9202 10.2759 56.4269 14.0124 54.3444 15.7472C54.6803 14.0791 54.546 11.3435 52.1276 9.07486C48.7687 5.87213 42.3197 4.60438 35.6019 4.73783C18.0014 5.07145 3.75977 19.0167 3.75977 36.4982C3.75977 53.9798 18.0686 68.1919 35.6691 68.1919C53.2696 68.1919 67.5784 53.9798 67.5784 36.4982C67.5784 31.7608 67.1082 27.1569 65.2944 23.0868Z" fill="#E30B17"/>
<path d="M63.6156 31.8271C70.5349 35.4969 72.2815 42.9699 70.3334 46.5063C68.3181 50.0426 63.2126 52.5114 63.2126 52.5114C63.2126 52.5114 65.6981 47.5071 64.8248 43.9708C64.0859 40.301 61.5331 37.0983 56.965 33.8955C56.965 33.8955 48.1648 28.4909 52.1283 22.5525C52.5313 28.4909 59.7865 29.692 63.6156 31.8271Z" fill="white"/>
<path d="M42.0516 33.0281C41.447 32.4276 40.7753 31.7604 40.1707 31.1599C32.9827 23.8203 29.2879 18.349 31.975 12.544C34.5949 6.87252 39.3645 5.6715 42.9249 5.6715C43.8654 5.6715 44.8731 5.73822 45.8808 5.93839L47.3587 6.20528L46.4182 4.93754C44.9403 2.93583 42.1188 0.467065 37.0133 0.0667236C36.6103 0.0667236 36.14 0 35.6698 0C32.2437 0 20.7564 1.06757 18.8754 15.213C17.8677 22.5525 21.361 29.8921 29.5566 37.632C37.0805 44.5046 43.1937 50.7099 41.6486 57.5824C40.5065 62.7868 35.8041 65.6559 28.4146 65.6559C26.3993 65.6559 24.7198 65.4557 23.645 65.2556L21.5625 64.8552L23.1747 66.2564C25.7947 68.5918 30.1612 71.3941 35.6026 71.3941C38.4912 71.3941 41.3799 70.5934 44.3357 69.0588C53.539 64.188 53.539 56.1145 53.539 55.7141C54.8825 45.839 48.635 39.6338 42.0516 33.0281Z" fill="white"/>
<path d="M29.9596 50.443L26.4664 50.3095L25.19 49.4421C25.2572 49.2419 25.3244 49.0418 25.3916 48.9083C25.5259 47.9075 24.6526 46.3728 24.6526 46.3728C24.6526 46.3728 22.2342 41.0349 20.2189 40.0341C18.6066 39.2334 15.8523 39.8339 14.979 40.1675C11.4858 37.9657 7.05209 34.029 6.04442 32.094C5.64136 31.2266 4.96958 29.2249 5.37265 26.6227C5.03676 26.7561 4.63369 26.9563 4.36498 27.0897C2.75272 27.757 -1.27793 30.159 0.401511 36.0307C0.401511 36.0307 2.34966 42.3027 10.814 46.2394C11.1499 47.1068 11.4858 50.5097 12.9637 51.1769C15.0462 52.1778 21.5624 51.8442 21.5624 51.8442C21.5624 51.8442 23.1075 52.111 24.2495 51.0435C24.2495 51.0435 24.3167 50.9767 24.3839 50.8433L25.5259 51.5105L27.4741 55.1136L27.1382 51.9109L29.9596 50.443Z" fill="white"/>
<path d="M19.0785 43.5707C19.8846 44.5716 21.0266 44.3047 21.0938 44.3047H21.161V44.238C21.0266 43.7709 20.6908 43.3039 20.2877 42.7033C19.6159 41.9027 18.877 41.2354 18.8098 41.2354L18.7426 41.1687V41.2354C18.7426 41.2354 18.2724 42.1028 18.877 43.1037C18.877 43.3039 18.9441 43.4373 19.0785 43.5707Z" fill="black"/>
<path d="M16.996 50.51L17.0631 50.4433C17.0631 50.4433 16.7944 49.2422 15.5852 48.9086C15.4509 48.8419 15.2493 48.8419 15.115 48.8419C13.973 48.7085 13.4355 49.5091 13.4355 49.5759V49.6426H13.5027C13.5027 49.6426 14.376 50.1096 15.3837 50.3765C15.9211 50.4433 16.5257 50.51 16.996 50.51Z" fill="black"/>
</svg>
