<svg width="21" height="17" viewBox="0 0 21 17" fill="none" xmlns="http://www.w3.org/2000/svg">
<path d="M19.3807 1.50292C18.8676 1.02645 18.2583 0.648483 17.5878 0.390606C16.9172 0.13273 16.1985 0 15.4727 0C14.7468 0 14.0281 0.13273 13.3576 0.390606C12.687 0.648483 12.0778 1.02645 11.5646 1.50292L10.4997 2.4913L9.43482 1.50292C8.39834 0.540937 6.99258 0.000498631 5.52679 0.000498641C4.06099 0.000498651 2.65523 0.540937 1.61876 1.50292C0.582285 2.46491 1.0921e-08 3.76964 0 5.1301C-1.0921e-08 6.49055 0.582285 7.79528 1.61876 8.75727L2.68367 9.74565L10.4997 17L18.3158 9.74565L19.3807 8.75727C19.8941 8.28102 20.3013 7.71557 20.5791 7.0932C20.857 6.47084 21 5.80377 21 5.1301C21 4.45642 20.857 3.78935 20.5791 3.16699C20.3013 2.54463 19.8941 1.97917 19.3807 1.50292Z" fill="#FF3366"/>
</svg>
