<svg width="78" height="72" viewBox="0 0 78 72" fill="none" xmlns="http://www.w3.org/2000/svg">
<path d="M63.1465 10.4757C63.1465 10.4757 73.2903 6.27212 77.9256 17.4817C77.9256 17.4817 68.8566 22.6194 63.1465 10.4757Z" fill="#00A538"/>
<path d="M65.2947 23.087C62.6748 17.2821 57.9052 16.8818 55.4868 17.0152C62.742 12.0777 65.026 5.13842 65.026 5.13842C64.0855 1.86896 61.7343 3.33688 61.7343 3.33688C59.9205 10.2761 56.4273 14.0126 54.3448 15.7475C54.6807 14.0794 54.5463 11.3437 52.1279 9.0751C48.769 5.87237 42.32 4.60463 35.6022 4.73807C18.0017 5.07169 3.76009 19.0169 3.76009 36.4985C3.76009 53.98 18.0689 68.1921 35.6694 68.1921C53.2699 68.1921 67.5787 53.98 67.5787 36.4985C67.5787 31.7611 67.1085 27.1572 65.2947 23.087Z" fill="#E30B17"/>
<path d="M63.6156 31.8271C70.5349 35.4969 72.2815 42.9699 70.3334 46.5063C68.3181 50.0426 63.2126 52.5114 63.2126 52.5114C63.2126 52.5114 65.6981 47.5071 64.8248 43.9708C64.0859 40.301 61.5331 37.0983 56.965 33.8955C56.965 33.8955 48.1648 28.4909 52.1283 22.5525C52.5313 28.4909 59.7865 29.692 63.6156 31.8271Z" fill="white"/>
<path d="M42.0516 33.0281C41.447 32.4276 40.7753 31.7604 40.1707 31.1599C32.9827 23.8203 29.2879 18.349 31.975 12.544C34.5949 6.87252 39.3645 5.6715 42.9249 5.6715C43.8654 5.6715 44.8731 5.73822 45.8808 5.93839L47.3587 6.20528L46.4182 4.93754C44.9403 2.93583 42.1188 0.467065 37.0133 0.0667236C36.6103 0.0667236 36.14 0 35.6698 0C32.2437 0 20.7564 1.06757 18.8754 15.213C17.8677 22.5525 21.361 29.8921 29.5566 37.632C37.0805 44.5046 43.1937 50.7098 41.6486 57.5824C40.5066 62.7868 35.8041 65.6559 28.4146 65.6559C26.3993 65.6559 24.7198 65.4557 23.645 65.2556L21.5625 64.8552L23.1747 66.2564C25.7947 68.5917 30.1612 71.3941 35.6026 71.3941C38.4912 71.3941 41.3799 70.5934 44.3357 69.0588C53.539 64.188 53.539 56.1145 53.539 55.7141C54.8825 45.839 48.635 39.6338 42.0516 33.0281Z" fill="white"/>
<path d="M29.9596 50.443L26.4664 50.3095L25.19 49.4421C25.2572 49.2419 25.3244 49.0418 25.3916 48.9083C25.5259 47.9075 24.6526 46.3728 24.6526 46.3728C24.6526 46.3728 22.2342 41.0349 20.2189 40.0341C18.6066 39.2334 15.8523 39.8339 14.979 40.1675C11.4858 37.9657 7.05209 34.029 6.04442 32.094C5.64136 31.2266 4.96958 29.2249 5.37265 26.6227C5.03676 26.7561 4.63369 26.9563 4.36498 27.0897C2.75272 27.757 -1.27793 30.159 0.401511 36.0307C0.401511 36.0307 2.34966 42.3027 10.814 46.2394C11.1499 47.1068 11.4858 50.5097 12.9637 51.1769C15.0462 52.1778 21.5624 51.8442 21.5624 51.8442C21.5624 51.8442 23.1075 52.111 24.2495 51.0435C24.2495 51.0435 24.3167 50.9767 24.3839 50.8433L25.5259 51.5105L27.4741 55.1136L27.1382 51.9109L29.9596 50.443Z" fill="white"/>
<path d="M19.0776 43.5705C19.8837 44.5714 21.0258 44.3045 21.0929 44.3045H21.1601V44.2377C21.0258 43.7707 20.6899 43.3036 20.2868 42.7031C19.615 41.9024 18.8761 41.2352 18.8089 41.2352L18.7417 41.1685V41.2352C18.7417 41.2352 18.2715 42.1026 18.8761 43.1034C18.8761 43.3036 18.9433 43.4371 19.0776 43.5705Z" fill="black"/>
<path d="M16.9951 50.5097L17.0623 50.443C17.0623 50.443 16.7936 49.242 15.5844 48.9084C15.45 48.8417 15.2485 48.8417 15.1141 48.8417C13.9721 48.7082 13.4347 49.5089 13.4347 49.5756V49.6423H13.5019C13.5019 49.6423 14.3752 50.1094 15.3828 50.3763C15.9202 50.443 16.5248 50.5097 16.9951 50.5097Z" fill="black"/>
</svg>
