<svg width="213" height="53" viewBox="0 0 213 53" fill="none" xmlns="http://www.w3.org/2000/svg">
<path d="M77.8774 16.8559C79.22 17.6198 80.3229 18.7656 81.2339 20.1979C81.5216 20.6276 81.6175 21.0096 81.6175 21.3915C81.6175 21.8689 81.3778 22.2986 80.9462 22.5851C80.7065 22.7283 80.4188 22.8238 80.0831 22.8238C79.7475 22.8238 79.4118 22.7283 79.1241 22.5851C78.8364 22.4418 78.5967 22.2031 78.4528 21.9167C77.8295 20.9141 77.1102 20.1502 76.1992 19.625C75.2881 19.0998 74.1374 18.8611 72.7468 18.8611C71.0686 18.8611 69.678 19.1953 68.6231 19.8637C67.5682 20.5321 67.0408 21.487 67.0408 22.7283C67.0408 23.8741 67.5203 24.8767 68.4313 25.6406C69.3903 26.4045 71.0686 26.9297 73.4661 27.1684C76.1512 27.4549 78.2131 28.2665 79.6995 29.6033C81.186 30.9401 81.9052 32.7544 81.9052 34.9505C81.9052 36.5738 81.4737 37.9106 80.6106 39.1042C79.7475 40.25 78.5967 41.1094 77.1102 41.6823C75.6717 42.2552 74.1374 42.5417 72.4591 42.5417C70.3014 42.5417 68.2875 42.0642 66.5133 41.0616C64.7392 40.059 63.4925 38.8177 62.8212 37.1945C62.7253 36.908 62.6294 36.717 62.6294 36.526C62.6294 36.1918 62.7732 35.9054 63.013 35.6189C63.2527 35.3802 63.5884 35.1892 64.0199 35.0938C64.0679 35.0938 64.2117 35.046 64.3556 35.046C64.6912 35.046 65.0748 35.1415 65.3625 35.3802C65.6982 35.5712 65.9379 35.8576 66.0818 36.2396C66.4654 37.099 67.2805 37.8629 68.4793 38.4358C69.678 39.0564 70.9727 39.3429 72.4112 39.3429C74.0894 39.3429 75.5279 38.9609 76.6787 38.1971C77.8295 37.4332 78.4049 36.3828 78.4049 35.046C78.4049 33.757 77.9254 32.7066 76.9184 31.7995C75.9115 30.8924 74.4251 30.3672 72.4112 30.1285C69.6301 29.842 67.4723 29.0304 65.842 27.6936C64.2597 26.3568 63.4445 24.638 63.4445 22.6328C63.4445 21.2005 63.8761 19.9592 64.6912 18.9566C65.5064 17.9063 66.6092 17.1424 68.0477 16.5694C69.4862 16.0443 71.0686 15.7578 72.8427 15.7578C74.9525 15.7101 76.5828 16.092 77.8774 16.8559Z" fill="white"/>
<path d="M100.558 40.7274C100.558 41.2049 100.366 41.6346 99.9344 41.9688C99.5987 42.2552 99.2631 42.3507 98.8795 42.3507C98.4 42.3507 97.9684 42.1597 97.6807 41.73L91.3034 33.8524L89.6251 35.3325V40.441C89.6251 40.9184 89.4813 41.3481 89.1936 41.6346C88.9059 41.921 88.4744 42.0642 87.9949 42.0642C87.5154 42.0642 87.0838 41.921 86.7961 41.6346C86.5084 41.3481 86.3646 40.9184 86.3646 40.441V17.6675C86.3646 17.1901 86.5084 16.7604 86.7961 16.474C87.0838 16.1875 87.5154 16.0443 87.9949 16.0443C88.4744 16.0443 88.9059 16.1875 89.1936 16.474C89.4813 16.7604 89.6251 17.1901 89.6251 17.6675V31.2743L97.7766 24.0174C98.0643 23.7309 98.4 23.5877 98.8315 23.5877C99.311 23.5877 99.6946 23.7787 99.9823 24.1129C100.27 24.3993 100.414 24.7335 100.414 25.1632C100.414 25.6406 100.222 26.0226 99.8864 26.309L93.7009 31.7995L100.222 39.7726C100.462 40.0113 100.558 40.3455 100.558 40.7274Z" fill="white"/>
<path d="M119.162 33.757C118.875 34.0434 118.491 34.1866 118.059 34.1866H105.305C105.544 35.7622 106.264 37.0035 107.415 37.9583C108.613 38.9132 110.052 39.3906 111.73 39.3906C112.401 39.3906 113.121 39.2474 113.84 39.0087C114.559 38.77 115.182 38.4835 115.614 38.1016C115.95 37.8629 116.285 37.7196 116.717 37.7196C117.148 37.7196 117.484 37.8151 117.724 38.0538C118.107 38.388 118.347 38.77 118.347 39.1997C118.347 39.5816 118.155 39.9158 117.82 40.2023C117.052 40.8229 116.093 41.3004 114.991 41.6823C113.84 42.0642 112.785 42.2552 111.73 42.2552C109.908 42.2552 108.23 41.8733 106.791 41.0616C105.353 40.25 104.202 39.1519 103.387 37.7674C102.572 36.3828 102.14 34.7596 102.14 32.9931C102.14 31.2266 102.524 29.6033 103.291 28.171C104.058 26.7387 105.161 25.6406 106.503 24.8767C107.894 24.0651 109.428 23.6832 111.203 23.6832C112.929 23.6832 114.415 24.0651 115.662 24.829C116.909 25.5929 117.868 26.6432 118.539 28.0278C119.21 29.4123 119.546 30.9401 119.546 32.7066C119.594 33.1363 119.45 33.4705 119.162 33.757ZM107.223 27.9323C106.216 28.8394 105.544 30.033 105.305 31.513H116.477C116.285 30.033 115.71 28.8394 114.799 27.9323C113.888 27.0252 112.689 26.5955 111.203 26.5955C109.572 26.5955 108.23 27.0252 107.223 27.9323Z" fill="white"/>
<path d="M139.685 16.474C140.02 16.8082 140.164 17.1901 140.164 17.7153V32.9931C140.164 34.7118 139.733 36.2873 138.918 37.7196C138.102 39.1519 137 40.25 135.609 41.0616C134.218 41.8733 132.636 42.303 130.91 42.303C129.184 42.303 127.601 41.8733 126.211 41.0616C124.772 40.25 123.67 39.1519 122.854 37.7196C122.039 36.2873 121.656 34.7118 121.656 32.9931C121.656 31.2743 122.039 29.6988 122.758 28.2665C123.526 26.8342 124.533 25.7361 125.827 24.9245C127.122 24.1129 128.608 23.7309 130.191 23.7309C131.485 23.7309 132.684 24.0174 133.835 24.5425C134.938 25.0677 135.897 25.8316 136.712 26.7865V17.7153C136.712 17.1901 136.856 16.8082 137.191 16.474C137.527 16.1398 137.911 15.9965 138.438 15.9965C138.965 15.9965 139.397 16.1875 139.685 16.474ZM133.979 38.4358C134.89 37.9106 135.609 37.1467 136.088 36.1918C136.616 35.237 136.856 34.1389 136.856 32.9931C136.856 31.7995 136.616 30.7491 136.088 29.7943C135.561 28.8394 134.842 28.0755 133.979 27.5504C133.068 27.0252 132.061 26.7387 130.958 26.7387C129.855 26.7387 128.848 27.0252 127.937 27.5504C127.026 28.0755 126.307 28.8394 125.779 29.7943C125.252 30.7491 125.012 31.7995 125.012 32.9931C125.012 34.1866 125.252 35.237 125.779 36.1918C126.307 37.1467 127.026 37.9106 127.937 38.4358C128.848 38.9609 129.855 39.2474 130.958 39.2474C132.061 39.2474 133.068 39.0087 133.979 38.4358Z" fill="white"/>
<path d="M158.529 24.9245C159.968 25.7361 161.07 26.8342 161.886 28.2665C162.701 29.6988 163.084 31.2743 163.084 32.9931C163.084 34.7118 162.701 36.3351 161.981 37.7196C161.214 39.1519 160.207 40.25 158.913 41.0616C157.618 41.8733 156.132 42.2552 154.549 42.2552C153.255 42.2552 152.056 41.9688 150.905 41.4436C149.802 40.9184 148.843 40.1545 148.028 39.1997V50.8012C148.028 51.3264 147.884 51.7083 147.548 52.0425C147.213 52.3767 146.829 52.52 146.302 52.52C145.822 52.52 145.391 52.3767 145.055 52.0425C144.719 51.7083 144.576 51.3264 144.576 50.8012V32.9931C144.576 31.2743 145.007 29.6988 145.822 28.2665C146.637 26.8342 147.74 25.7361 149.131 24.9245C150.521 24.1129 152.104 23.6832 153.83 23.6832C155.556 23.6832 157.091 24.1129 158.529 24.9245ZM156.851 38.4358C157.762 37.9106 158.481 37.1467 159.009 36.1918C159.536 35.237 159.776 34.1866 159.776 32.9931C159.776 31.7995 159.536 30.7491 159.009 29.7943C158.481 28.8394 157.762 28.0755 156.851 27.5504C155.94 27.0252 154.933 26.7387 153.83 26.7387C152.727 26.7387 151.72 27.0252 150.809 27.5504C149.898 28.0755 149.179 28.8394 148.699 29.7943C148.172 30.7491 147.932 31.8472 147.932 32.9931C147.932 34.1866 148.172 35.237 148.699 36.1918C149.227 37.1467 149.946 37.9106 150.809 38.4358C151.72 38.9609 152.727 39.2474 153.83 39.2474C154.933 39.2474 155.94 39.0087 156.851 38.4358Z" fill="white"/>
<path d="M167.304 16.474C167.639 16.1398 168.023 15.9965 168.503 15.9965C168.982 15.9965 169.414 16.1398 169.701 16.474C170.037 16.8082 170.181 17.1901 170.181 17.6675V35.9531C170.181 36.7648 170.325 37.4809 170.66 38.0061C170.996 38.5313 171.38 38.8177 171.859 38.8177H172.722C173.154 38.8177 173.537 38.9609 173.825 39.2951C174.113 39.6294 174.257 40.0113 174.257 40.4887C174.257 40.9662 174.065 41.3958 173.633 41.6823C173.202 42.0165 172.674 42.1597 172.003 42.1597H171.955C170.996 42.1597 170.133 41.921 169.366 41.3958C168.598 40.8707 167.975 40.1545 167.592 39.1997C167.16 38.2448 166.968 37.1945 166.968 36.0009V17.6675C166.824 17.1901 167.016 16.8082 167.304 16.474Z" fill="white"/>
<path d="M188.929 24.9245C190.32 25.7361 191.423 26.8342 192.238 28.2665C193.053 29.6988 193.484 31.2743 193.484 32.9931V40.441C193.484 40.9184 193.341 41.3481 193.005 41.6823C192.669 42.0165 192.286 42.1597 191.758 42.1597C191.279 42.1597 190.847 42.0165 190.512 41.6823C190.176 41.3481 190.032 40.9662 190.032 40.441V39.1997C189.265 40.1545 188.306 40.9184 187.155 41.4436C186.052 41.9688 184.806 42.2552 183.511 42.2552C181.881 42.2552 180.442 41.8733 179.147 41.0616C177.853 40.25 176.798 39.1519 176.079 37.7196C175.311 36.2873 174.976 34.7118 174.976 32.9931C174.976 31.2743 175.359 29.6988 176.175 28.2665C176.99 26.8342 178.093 25.7361 179.531 24.9245C180.97 24.1129 182.504 23.6832 184.23 23.6832C185.956 23.6832 187.539 24.1129 188.929 24.9245ZM187.299 38.4358C188.21 37.9106 188.929 37.1467 189.409 36.1918C189.936 35.237 190.176 34.1866 190.176 32.9931C190.176 31.7995 189.936 30.7491 189.409 29.7943C188.881 28.8394 188.162 28.0755 187.299 27.5504C186.388 27.0252 185.381 26.7387 184.278 26.7387C183.175 26.7387 182.168 27.0252 181.257 27.5504C180.346 28.0755 179.627 28.8394 179.099 29.7943C178.572 30.7491 178.332 31.8472 178.332 32.9931C178.332 34.1866 178.572 35.237 179.099 36.1918C179.627 37.1467 180.346 37.9106 181.257 38.4358C182.168 38.9609 183.175 39.2474 184.278 39.2474C185.381 39.2474 186.388 39.0087 187.299 38.4358Z" fill="white"/>
<path d="M213 25.3064C213 25.5451 212.952 25.7839 212.808 26.1181L202.499 49.1302C202.211 49.7986 201.78 50.1806 201.204 50.1806C200.965 50.1806 200.725 50.1328 200.389 49.9896C199.718 49.7031 199.382 49.2734 199.382 48.7005C199.382 48.4141 199.43 48.1754 199.574 47.8889L202.931 40.3455L195.354 26.0703C195.259 25.8793 195.163 25.6406 195.163 25.3542C195.163 25.0677 195.259 24.7813 195.45 24.5425C195.642 24.3038 195.882 24.1129 196.17 23.9696C196.361 23.8741 196.601 23.8264 196.841 23.8264C197.464 23.8264 197.944 24.1606 198.231 24.7813L204.369 36.9557L209.787 24.829C210.075 24.1606 210.507 23.8741 211.082 23.8741C211.37 23.8741 211.657 23.9219 211.897 24.0174C212.664 24.2561 213 24.6858 213 25.3064Z" fill="white"/>
<path d="M45.3675 8.21441C45.3675 8.21441 52.6079 5.2066 55.9165 13.2274C55.9165 13.2274 49.4432 16.9036 45.3675 8.21441Z" fill="#00A538"/>
<path d="M46.9019 17.2378C45.0318 13.0842 41.6274 12.7977 39.9012 12.8932C45.0798 9.36024 46.7101 4.39496 46.7101 4.39496C46.0388 2.05555 44.3605 3.1059 44.3605 3.1059C43.0659 8.07118 40.5725 10.7448 39.0861 11.9861C39.3258 10.7925 39.2299 8.83507 37.5037 7.2118C35.1062 4.92014 30.5031 4.01302 25.7081 4.1085C13.1452 4.34722 2.97986 14.3255 2.97986 26.8342C2.97986 39.3429 13.1932 49.5122 25.756 49.5122C38.3189 49.5122 48.5322 39.3429 48.5322 26.8342C48.5322 23.4444 48.1965 20.1502 46.9019 17.2378Z" fill="#E30B17"/>
<path d="M45.7031 23.4922C50.642 26.118 51.8887 31.4653 50.4981 33.9957C49.0596 36.526 45.4154 38.2925 45.4154 38.2925C45.4154 38.2925 47.1896 34.7118 46.5662 32.1814C46.0388 29.5555 44.2167 27.2639 40.9561 24.9722C40.9561 24.9722 34.6747 21.105 37.5037 16.8559C37.7914 21.105 42.97 21.9644 45.7031 23.4922Z" fill="white"/>
<path d="M30.3113 24.3516C29.8797 23.9219 29.4002 23.4444 28.9687 23.0148C23.838 17.763 21.2008 13.8481 23.1188 9.69444C24.9888 5.63628 28.3933 4.77691 30.9346 4.77691C31.6059 4.77691 32.3252 4.82465 33.0444 4.96788L34.0993 5.15885L33.428 4.25174C32.3731 2.81944 30.3592 1.05295 26.715 0.766493C26.4273 0.766493 26.0917 0.71875 25.756 0.71875C23.3106 0.71875 15.1112 1.48264 13.7686 11.6042C13.0493 16.8559 15.5427 22.1076 21.3926 27.6458C26.763 32.5634 31.1264 37.0035 30.0236 41.921C29.2084 45.645 25.8519 47.6979 20.5775 47.6979C19.139 47.6979 17.9402 47.5547 17.173 47.4115L15.6866 47.125L16.8374 48.1276C18.7074 49.7986 21.8241 51.8038 25.7081 51.8038C27.7699 51.8038 29.8318 51.2309 31.9416 50.1328C38.5107 46.6476 38.5107 40.8707 38.5107 40.5842C39.4697 33.5182 35.0103 29.0781 30.3113 24.3516Z" fill="white"/>
<path d="M21.6803 36.8125L19.1869 36.717L18.2758 36.0964C18.3238 35.9531 18.3717 35.8099 18.4197 35.7144C18.5156 34.9983 17.8923 33.9002 17.8923 33.9002C17.8923 33.9002 16.1661 30.0807 14.7276 29.3646C13.5768 28.7917 11.6108 29.2214 10.9875 29.4601C8.49408 27.8846 5.3294 25.0677 4.61015 23.6832C4.32245 23.0625 3.84295 21.6302 4.13065 19.7682C3.8909 19.8637 3.6032 20.0069 3.4114 20.1024C2.26061 20.5799 -0.61638 22.2986 0.582366 26.5C0.582366 26.5 1.97291 30.9879 8.01459 33.8047C8.25433 34.4254 8.49408 36.8603 9.54898 37.3377C11.0354 38.0538 15.6866 37.8151 15.6866 37.8151C15.6866 37.8151 16.7894 38.0061 17.6045 37.2422C17.6045 37.2422 17.6525 37.1945 17.7004 37.099L18.5156 37.5764L19.9061 40.1545L19.6664 37.8629L21.6803 36.8125Z" fill="white"/>
<path d="M13.9124 31.895C14.4878 32.6111 15.3029 32.4201 15.3509 32.4201H15.3988V32.3724C15.3029 32.0382 15.0632 31.704 14.7755 31.2743C14.296 30.7014 13.7685 30.224 13.7206 30.224L13.6726 30.1762V30.224C13.6726 30.224 13.337 30.8446 13.7685 31.5608C13.7685 31.704 13.8165 31.7995 13.9124 31.895Z" fill="black"/>
<path d="M12.426 36.8602L12.4739 36.8125C12.4739 36.8125 12.2821 35.9531 11.419 35.7144C11.3231 35.6667 11.1793 35.6667 11.0834 35.6667C10.2682 35.5712 9.88464 36.1441 9.88464 36.1918V36.2396H9.93259C9.93259 36.2396 10.5559 36.5738 11.2752 36.7648C11.6588 36.8125 12.0903 36.8602 12.426 36.8602Z" fill="black"/>
</svg>
